<?xml version="1.0" standalone="no"?><!DOCTYPE svg PUBLIC "-//W3C//DTD SVG 1.1//EN" "http://www.w3.org/Graphics/SVG/1.1/DTD/svg11.dtd"><svg t="1693399950535" class="icon" viewBox="0 0 1024 1024" version="1.1" xmlns="http://www.w3.org/2000/svg" p-id="4045" xmlns:xlink="http://www.w3.org/1999/xlink" width="200" height="200"><path d="M945.015467 209.851733L744.721067 10.717867A37.410133 37.410133 0 0 0 718.506667 0H142.199467C101.444267 0 68.266667 32.768 68.266667 73.1136V950.954667C68.266667 991.163733 101.444267 1024 142.199467 1024h739.601066c40.7552 0 73.9328-32.768 73.9328-73.1136V235.656533a36.181333 36.181333 0 0 0-10.717866-25.8048z m-63.214934 704.443734a36.727467 36.727467 0 0 1-37.000533 36.590933h-665.6c-20.48 0-37.000533-16.384-37.000533-36.590933V109.704533c0-20.206933 16.520533-36.590933 37.000533-36.590933h443.733333V256c0 40.3456 33.1776 73.1136 73.9328 73.1136h184.9344v585.181867zM733.866667 256c-20.48 0-37.000533-16.384-37.000534-36.590933V73.1136l184.9344 182.8864H733.866667z" p-id="4046"></path><path d="M711.953067 741.1712H243.712a38.912 38.912 0 1 0 0 78.0288H712.021333a38.912 38.912 0 1 0 0-78.0288zM243.712 507.221333a38.912 38.912 0 1 0 0 77.960534H712.021333a38.912 38.912 0 1 0 0-77.960534H243.712z m0-156.0576H477.866667A38.912 38.912 0 1 0 477.866667 273.066667H243.780267a38.912 38.912 0 1 0 0 78.0288z" p-id="4047"></path></svg>