<?xml version="1.0" standalone="no"?><!DOCTYPE svg PUBLIC "-//W3C//DTD SVG 1.1//EN" "http://www.w3.org/Graphics/SVG/1.1/DTD/svg11.dtd"><svg t="1693411559416" class="icon" viewBox="0 0 1211 1024" version="1.1" xmlns="http://www.w3.org/2000/svg" p-id="4188" width="354.78515625" height="300" xmlns:xlink="http://www.w3.org/1999/xlink"><path d="M588.8 170.666667h34.133333v682.666666h-34.133333z" fill="#2A5082" p-id="4189"></path><path d="M605.866667 853.333333c187.733333 0 341.333333-153.6 341.333333-341.333333s-153.6-341.333333-341.333333-341.333333-341.333333 153.6-341.333334 341.333333 153.6 341.333333 341.333334 341.333333z" fill="#A3D4FF" p-id="4190"></path><path d="M605.866667 870.4c-197.973333 0-358.4-160.426667-358.4-358.4s160.426667-358.4 358.4-358.4 358.4 160.426667 358.4 358.4-160.426667 358.4-358.4 358.4z m0-682.666667c-179.2 0-324.266667 145.066667-324.266667 324.266667s145.066667 324.266667 324.266667 324.266667 324.266667-145.066667 324.266666-324.266667-145.066667-324.266667-324.266666-324.266667z" fill="#2A5082" p-id="4191"></path><path d="M605.866667 870.4c-114.346667 0-204.8-157.013333-204.8-358.4s90.453333-358.4 204.8-358.4 204.8 157.013333 204.8 358.4-90.453333 358.4-204.8 358.4z m0-682.666667c-92.16 0-170.666667 148.48-170.666667 324.266667s78.506667 324.266667 170.666667 324.266667 170.666667-148.48 170.666666-324.266667-78.506667-324.266667-170.666666-324.266667z" fill="#2A5082" p-id="4192"></path><path d="M278.186667 494.933333h655.36v34.133334H278.186667z" fill="#2A5082" p-id="4193"></path><path d="M588.8 170.666667h34.133333v682.666666h-34.133333z" fill="#2A5082" p-id="4194"></path><path d="M332.8 307.2h546.133333v34.133333h-546.133333zM332.8 682.666667h546.133333v34.133333h-546.133333zM576.853333 131.413333L513.706667 68.266667 576.853333 5.12l23.893334 23.893333L561.493333 68.266667l39.253334 39.253333z" fill="#2A5082" p-id="4195"></path><path d="M1012.053333 380.586667C955.733333 204.8 791.893333 85.333333 605.866667 85.333333h-68.266667V51.2h68.266667c201.386667 0 377.173333 128 438.613333 319.146667l-32.426667 10.24zM730.453333 955.733333l-8.533333-32.426666C904.533333 872.106667 1032.533333 703.146667 1032.533333 512v-85.333333h34.133334v85.333333c0 206.506667-138.24 389.12-336.213334 443.733333zM674.133333 972.8h-68.266666c-206.506667 0-389.12-138.24-443.733334-336.213333l32.426667-8.533334C245.76 810.666667 414.72 938.666667 605.866667 938.666667h68.266666v34.133333zM179.2 580.266667h-34.133333v-68.266667c0-204.8 136.533333-387.413333 334.506666-443.733333l8.533334 34.133333C305.493333 153.6 179.2 322.56 179.2 512v68.266667z" fill="#2A5082" p-id="4196"></path><path d="M634.88 1018.88l-23.893333-23.893333 39.253333-39.253334-39.253333-39.253333 23.893333-23.893333 63.146667 63.146666zM162.133333 604.16l-63.146666-63.146667 23.893333-23.893333 39.253333 39.253333 39.253334-39.253333 23.893333 23.893333zM1088.853333 489.813333l-39.253333-39.253333-39.253333 39.253333-23.893334-23.893333 63.146667-63.146667 63.146667 63.146667z" fill="#2A5082" p-id="4197"></path></svg>